<?xml version="1.0" standalone="no"?>
<!DOCTYPE svg PUBLIC "-//W3C//DTD SVG 20010904//EN"
 "http://www.w3.org/TR/2001/REC-SVG-20010904/DTD/svg10.dtd">
<svg version="1.0" xmlns="http://www.w3.org/2000/svg"
 width="3005.000000pt" height="3005.000000pt" viewBox="0 0 3005.000000 3005.000000"
 preserveAspectRatio="xMidYMid meet">
<metadata>
Created by potrace 1.14, written by Peter Selinger 2001-2017
</metadata>
<g transform="translate(0.000000,3005.000000) scale(0.100000,-0.100000)"
fill="#000000" stroke="none">
<path d="M5848 21199 c-77 -11 -187 -50 -256 -91 -32 -18 -96 -72 -144 -119
-72 -72 -93 -101 -132 -181 l-47 -95 -223 -1124 c-123 -618 -531 -2675 -907
-4571 -376 -1897 -686 -3448 -689 -3448 -3 0 -299 494 -657 1098 -359 603
-673 1122 -697 1153 -55 70 -148 141 -251 190 -144 70 -127 69 -1027 69 l-808
0 0 -720 0 -720 558 0 559 0 1039 -1746 c823 -1383 1051 -1760 1098 -1811 268
-294 730 -312 1021 -41 88 82 162 196 194 296 17 55 377 1864 2048 10290 l26
132 11748 0 11749 0 0 725 0 725 -12072 -1 c-6640 -1 -12099 -5 -12130 -10z"/>
<path d="M10905 17829 c-746 -68 -1365 -349 -1763 -799 -104 -118 -226 -299
-296 -439 -131 -261 -195 -506 -216 -830 -27 -403 47 -805 207 -1125 212 -423
638 -829 1155 -1101 68 -35 470 -212 895 -394 424 -181 821 -355 882 -386 549
-275 881 -608 982 -985 34 -123 34 -314 0 -420 -34 -112 -86 -203 -162 -284
-141 -151 -319 -245 -576 -305 -162 -38 -292 -52 -529 -58 -405 -10 -724 37
-1119 164 -705 227 -1214 559 -1552 1010 -66 90 -89 113 -108 113 -13 0 -29
-8 -34 -17 -5 -10 -80 -330 -166 -710 -123 -540 -156 -701 -151 -730 6 -32 28
-59 134 -163 446 -440 993 -727 1732 -909 399 -99 720 -140 1140 -148 474 -9
835 30 1201 131 440 121 850 358 1125 648 277 293 456 666 524 1094 31 191 28
571 -5 793 -111 742 -499 1279 -1241 1721 -185 110 -334 183 -977 479 -772
355 -1035 489 -1312 669 -340 221 -479 380 -546 628 -29 104 -31 298 -5 394
87 318 376 520 835 584 148 21 482 21 661 0 511 -59 909 -243 1311 -606 58
-53 152 -148 209 -212 57 -64 112 -119 122 -122 20 -6 58 3 58 15 0 4 63 345
141 757 141 751 149 812 118 850 -23 27 -278 174 -454 261 -438 215 -912 355
-1425 419 -149 18 -648 27 -795 13z"/>
<path d="M19000 17809 c-808 -50 -1517 -264 -2133 -643 -827 -510 -1417 -1303
-1681 -2263 -109 -398 -159 -794 -158 -1278 0 -728 114 -1309 373 -1893 331
-746 885 -1370 1587 -1785 764 -452 1700 -665 2681 -608 1068 62 1952 401
2651 1017 406 358 751 847 979 1390 355 845 446 1976 236 2946 -86 398 -249
821 -451 1165 -536 915 -1396 1545 -2480 1817 -481 120 -1059 169 -1604 135z
m605 -1389 c697 -58 1261 -296 1694 -715 427 -413 690 -968 776 -1635 35 -269
30 -731 -11 -1035 -65 -478 -211 -902 -425 -1230 -458 -703 -1168 -1054 -2189
-1082 -1149 -31 -2055 455 -2529 1358 -176 336 -281 693 -333 1134 -20 169
-16 687 5 850 72 536 241 970 526 1350 94 124 286 323 406 420 426 344 955
543 1565 588 105 8 404 6 515 -3z"/>
<path d="M25130 17690 c-20 -20 -20 -33 -20 -4124 0 -3894 1 -4105 18 -4125
l17 -21 2189 2 2189 3 18 25 c17 24 319 1250 319 1296 0 12 -8 28 -18 37 -17
16 -143 17 -1605 17 l-1587 0 -2 3441 c-3 3393 -3 3441 -22 3455 -17 12 -135
14 -748 14 -715 0 -728 0 -748 -20z"/>
</g>
</svg>
